REM DIRINDEX 1\2,1\3,1\4,1\5\6,1\5\7,1\8
REM DIRNAME cjc115,folder01,folder02,folder03,folder04,folder05,folder06,folder07
TITLE ""
FILE "100 Åy100ÅzUnit6 (1129 subjective_1140 recede).mp3" MP3
  TRACK 01 AUDIO
    TITLE "0:"
    INDEX 01 00:00:00
  TRACK 02 AUDIO
    TITLE "2:cjc115_3910"
    INDEX 01 00:00:07
  TRACK 03 AUDIO
    TITLE "0:"
    INDEX 01 00:01:38
  TRACK 04 AUDIO
    TITLE "3:cjc115_3911"
    INDEX 01 00:01:50
  TRACK 05 AUDIO
    TITLE "0:"
    INDEX 01 00:03:02
  TRACK 06 AUDIO
    TITLE "4:cjc115_3912"
    INDEX 01 00:03:14
  TRACK 07 AUDIO
    TITLE "0:"
    INDEX 01 00:06:63
  TRACK 08 AUDIO
    TITLE "2:cjc115_3913"
    INDEX 01 00:08:01
  TRACK 09 AUDIO
    TITLE "0:"
    INDEX 01 00:09:26
  TRACK 10 AUDIO
    TITLE "3:cjc115_3914"
    INDEX 01 00:09:42
  TRACK 11 AUDIO
    TITLE "0:"
    INDEX 01 00:12:38
  TRACK 12 AUDIO
    TITLE "4:cjc115_3915"
    INDEX 01 00:12:48
  TRACK 13 AUDIO
    TITLE "0:"
    INDEX 01 00:16:38
  TRACK 14 AUDIO
    TITLE "2:cjc115_3916"
    INDEX 01 00:17:49
  TRACK 15 AUDIO
    TITLE "0:"
    INDEX 01 00:18:50
  TRACK 16 AUDIO
    TITLE "3:cjc115_3917"
    INDEX 01 00:18:58
  TRACK 17 AUDIO
    TITLE "0:"
    INDEX 01 00:20:32
  TRACK 18 AUDIO
    TITLE "4:cjc115_3918"
    INDEX 01 00:20:41
  TRACK 19 AUDIO
    TITLE "0:"
    INDEX 01 00:25:29
  TRACK 20 AUDIO
    TITLE "2:cjc115_3919"
    INDEX 01 00:26:44
  TRACK 21 AUDIO
    TITLE "0:"
    INDEX 01 00:28:00
  TRACK 22 AUDIO
    TITLE "3:cjc115_3920"
    INDEX 01 00:28:12
  TRACK 23 AUDIO
    TITLE "0:"
    INDEX 01 00:30:26
  TRACK 24 AUDIO
    TITLE "4:cjc115_3921"
    INDEX 01 00:30:36
  TRACK 25 AUDIO
    TITLE "0:"
    INDEX 01 00:34:26
  TRACK 26 AUDIO
    TITLE "2:cjc115_3922"
    INDEX 01 00:35:41
  TRACK 27 AUDIO
    TITLE "0:"
    INDEX 01 00:36:44
  TRACK 28 AUDIO
    TITLE "3:cjc115_3923"
    INDEX 01 00:36:58
  TRACK 29 AUDIO
    TITLE "0:"
    INDEX 01 00:37:63
  TRACK 30 AUDIO
    TITLE "4:cjc115_3924"
    INDEX 01 00:37:69
  TRACK 31 AUDIO
    TITLE "0:"
    INDEX 01 00:41:26
  TRACK 32 AUDIO
    TITLE "2:cjc115_3925"
    INDEX 01 00:42:41
  TRACK 33 AUDIO
    TITLE "0:"
    INDEX 01 00:43:68
  TRACK 34 AUDIO
    TITLE "3:cjc115_3926"
    INDEX 01 00:44:11
  TRACK 35 AUDIO
    TITLE "0:"
    INDEX 01 00:46:41
  TRACK 36 AUDIO
    TITLE "4:cjc115_3927"
    INDEX 01 00:46:49
  TRACK 37 AUDIO
    TITLE "0:"
    INDEX 01 00:50:50
  TRACK 38 AUDIO
    TITLE "2:cjc115_3928"
    INDEX 01 00:51:63
  TRACK 39 AUDIO
    TITLE "0:"
    INDEX 01 00:53:11
  TRACK 40 AUDIO
    TITLE "3:cjc115_3929"
    INDEX 01 00:53:25
  TRACK 41 AUDIO
    TITLE "0:"
    INDEX 01 00:55:26
  TRACK 42 AUDIO
    TITLE "4:cjc115_3930"
    INDEX 01 00:55:36
  TRACK 43 AUDIO
    TITLE "0:"
    INDEX 01 00:59:02
  TRACK 44 AUDIO
    TITLE "2:cjc115_3931"
    INDEX 01 01:00:15
  TRACK 45 AUDIO
    TITLE "0:"
    INDEX 01 01:01:17
  TRACK 46 AUDIO
    TITLE "3:cjc115_3932"
    INDEX 01 01:01:33
  TRACK 47 AUDIO
    TITLE "0:"
    INDEX 01 01:02:38
  TRACK 48 AUDIO
    TITLE "4:cjc115_3933"
    INDEX 01 01:02:48
  TRACK 49 AUDIO
    TITLE "0:"
    INDEX 01 01:05:50
  TRACK 50 AUDIO
    TITLE "2:cjc115_3934"
    INDEX 01 01:06:63
  TRACK 51 AUDIO
    TITLE "0:"
    INDEX 01 01:07:66
  TRACK 52 AUDIO
    TITLE "3:cjc115_3935"
    INDEX 01 01:08:05
  TRACK 53 AUDIO
    TITLE "0:"
    INDEX 01 01:09:24
  TRACK 54 AUDIO
    TITLE "4:cjc115_3936"
    INDEX 01 01:09:36
  TRACK 55 AUDIO
    TITLE "0:"
    INDEX 01 01:12:42
  TRACK 56 AUDIO
    TITLE "2:cjc115_3937"
    INDEX 01 01:13:55
  TRACK 57 AUDIO
    TITLE "0:"
    INDEX 01 01:15:23
  TRACK 58 AUDIO
    TITLE "3:cjc115_3938"
    INDEX 01 01:15:39
  TRACK 59 AUDIO
    TITLE "0:"
    INDEX 01 01:17:57
  TRACK 60 AUDIO
    TITLE "4:cjc115_3939"
    INDEX 01 01:17:65
  TRACK 61 AUDIO
    TITLE "0:"
    INDEX 01 01:22:62
  TRACK 62 AUDIO
    TITLE "2:cjc115_3940"
    INDEX 01 01:24:04
  TRACK 63 AUDIO
    TITLE "0:"
    INDEX 01 01:25:27
  TRACK 64 AUDIO
    TITLE "3:cjc115_3941"
    INDEX 01 01:25:39
  TRACK 65 AUDIO
    TITLE "0:"
    INDEX 01 01:27:06
  TRACK 66 AUDIO
    TITLE "4:cjc115_3942"
    INDEX 01 01:27:16
  TRACK 67 AUDIO
    TITLE "0:"
    INDEX 01 01:31:26
  TRACK 68 AUDIO
    TITLE "2:cjc115_3943"
    INDEX 01 01:32:39
  TRACK 69 AUDIO
    TITLE "0:"
    INDEX 01 01:33:44
  TRACK 70 AUDIO
    TITLE "3:cjc115_3944"
    INDEX 01 01:33:60
  TRACK 71 AUDIO
    TITLE "0:"
    INDEX 01 01:34:71
  TRACK 72 AUDIO
    TITLE "4:cjc115_3945"
    INDEX 01 01:35:08
  TRACK 73 AUDIO
    TITLE "0:"
    INDEX 01 01:38:00
